<?xml version="1.0" encoding="utf-8"?>
<svg viewBox="0 0 512 512" xmlns="http://www.w3.org/2000/svg">
  <path d="M 464 496 C 446.33 496 432 481.69 432 464 L 432 389.91 C 392.1 445.48 327.4 480 256 480 C 161.5 480 78.59 419.66 49.58 329.8 C 44.142 312.99 53.377 294.92 70.19 289.52 C 87.08 284.02 105.07 293.332 110.49 310.11 C 130.9 373.5 189.4 416 256 416 C 306.5 416 352.26 391.45 380.4 352 L 336 352 C 318.33 352 304 337.69 304 320 C 304 302.31 318.33 288 336 288 L 464 288 C 481.67 288 496 302.31 496 320 L 496 464 C 496 481.69 481.7 496 464 496 Z M 441.8 222.4 C 424.88 227.838 406.92 218.588 401.5 201.81 C 381.1 138.5 322.6 96 256 96 C 205.5 96 159.75 120.55 131.6 160 L 176 160 C 193.67 160 208 174.31 208 192 C 208 209.69 193.67 224 176 224 L 48 224 C 30.33 224 16 209.69 16 192 L 16 48 C 16 30.31 30.33 16 48 16 C 65.67 16 80 30.31 80 48 L 80 122.09 C 119.9 66.5 184.6 32 255.1 32 C 349.55 32 432.5 92.34 461.5 182.2 C 467.9 199 458.6 217.9 441.8 222.4 Z" style="fill: rgb(66, 66, 66);" transform="matrix(0, 1, -1, 0, 512, 0)"/>
</svg>